# xmcd
#
# Track frame offsets: 
#        150
#        15876
#        33045
#        53428
#        75825
#        86250
#        102537
#        124517
#
# Disc length: 1835 seconds
#
# Revision: 0
# Processed by: cddbd v1.5.2PL0 Copyright (c) Steve Scherf et al.
# Submitted via: ExactAudioCopy v1.2
#
DISCID=40072908
DTITLE=Bert Wray Blues - Gut Bucket Radio
DYEAR=2017
DGENRE=Blues-Rock
TTITLE0=Midwood Blues
TTITLE1=Just Like Johnny Winter Did
TTITLE2=Whiskey in My Coffee Cup
TTITLE3=Drinking a Beer
TTITLE4=Got the Tennessee Blues
TTITLE5=On a Misty Morning
TTITLE6=Little Highway Girl
TTITLE7=Mean Maryland Blues
EXTD=
EXTT0=
EXTT1=
EXTT2=
EXTT3=
EXTT4=
EXTT5=
EXTT6=
EXTT7=
PLAYORDER=
